<mxfile host="drawio-plugin" modified="2022-08-17T07:47:42.025Z" agent="5.0 (Macintosh; Intel Mac OS X 12_0_1) AppleWebKit/537.36 (KHTML, like Gecko) Chrome/89.0.4389.114 Safari/537.36" etag="VwtOVm6l8qhPS3WniolT" version="15.5.4" type="embed"><diagram id="677z3VLzvzpUg0zOksJ4" name="Page-1"><mxGraphModel dx="1298" dy="823" grid="1" gridSize="10" guides="1" tooltips="1" connect="1" arrows="1" fold="1" page="1" pageScale="1" pageWidth="850" pageHeight="1100" math="0" shadow="0"><root><mxCell id="0"/><mxCell id="1" parent="0"/><mxCell id="HejqSCb5vRLls4wG4HWl-1" value="" style="rounded=0;whiteSpace=wrap;html=1;" parent="1" vertex="1"><mxGeometry x="65" y="200" width="720" height="430" as="geometry"/></mxCell><mxCell id="HejqSCb5vRLls4wG4HWl-2" value="" style="rounded=0;whiteSpace=wrap;html=1;" parent="1" vertex="1"><mxGeometry x="250" y="250" width="120" height="30" as="geometry"/></mxCell><mxCell id="HejqSCb5vRLls4wG4HWl-3" value="" style="rounded=0;whiteSpace=wrap;html=1;" parent="1" vertex="1"><mxGeometry x="250" y="400" width="120" height="90" as="geometry"/></mxCell><mxCell id="HejqSCb5vRLls4wG4HWl-4" value="" style="rounded=0;whiteSpace=wrap;html=1;" parent="1" vertex="1"><mxGeometry x="250" y="350" width="120" height="30" as="geometry"/></mxCell><mxCell id="HejqSCb5vRLls4wG4HWl-5" value="" style="rounded=0;whiteSpace=wrap;html=1;" parent="1" vertex="1"><mxGeometry x="250" y="300" width="120" height="30" as="geometry"/></mxCell><mxCell id="HejqSCb5vRLls4wG4HWl-6" value="" style="rounded=0;whiteSpace=wrap;html=1;" parent="1" vertex="1"><mxGeometry x="510" y="350" width="120" height="30" as="geometry"/></mxCell><mxCell id="HejqSCb5vRLls4wG4HWl-7" value="Pomodoro Length:" style="text;html=1;strokeColor=none;fillColor=none;align=center;verticalAlign=middle;whiteSpace=wrap;rounded=0;" parent="1" vertex="1"><mxGeometry x="100" y="250" width="120" height="30" as="geometry"/></mxCell><mxCell id="HejqSCb5vRLls4wG4HWl-8" value="minute(s) after" style="text;html=1;strokeColor=none;fillColor=none;align=center;verticalAlign=middle;whiteSpace=wrap;rounded=0;" parent="1" vertex="1"><mxGeometry x="380" y="350" width="120" height="30" as="geometry"/></mxCell><mxCell id="HejqSCb5vRLls4wG4HWl-9" value="Break Time Span:" style="text;html=1;strokeColor=none;fillColor=none;align=center;verticalAlign=middle;whiteSpace=wrap;rounded=0;" parent="1" vertex="1"><mxGeometry x="100" y="300" width="120" height="30" as="geometry"/></mxCell><mxCell id="HejqSCb5vRLls4wG4HWl-10" value="Long Break Time Span:" style="text;html=1;strokeColor=none;fillColor=none;align=center;verticalAlign=middle;whiteSpace=wrap;rounded=0;" parent="1" vertex="1"><mxGeometry x="100" y="350" width="120" height="30" as="geometry"/></mxCell><mxCell id="HejqSCb5vRLls4wG4HWl-11" value="Show Message notification" style="text;html=1;strokeColor=none;fillColor=none;align=center;verticalAlign=middle;whiteSpace=wrap;rounded=0;" parent="1" vertex="1"><mxGeometry x="100" y="430" width="120" height="30" as="geometry"/></mxCell><mxCell id="HejqSCb5vRLls4wG4HWl-13" value="Pomodoros" style="text;html=1;strokeColor=none;fillColor=none;align=center;verticalAlign=middle;whiteSpace=wrap;rounded=0;" parent="1" vertex="1"><mxGeometry x="620" y="350" width="120" height="30" as="geometry"/></mxCell><mxCell id="2" value="&lt;font style=&quot;font-size: 18px&quot;&gt;start&lt;/font&gt;" style="rounded=0;whiteSpace=wrap;html=1;" vertex="1" parent="1"><mxGeometry x="220" y="550" width="80" height="30" as="geometry"/></mxCell><mxCell id="3" value="&lt;span style=&quot;font-size: 18px&quot;&gt;paus&lt;/span&gt;" style="rounded=0;whiteSpace=wrap;html=1;" vertex="1" parent="1"><mxGeometry x="390" y="550" width="80" height="30" as="geometry"/></mxCell><mxCell id="6" value="25:00" style="rounded=0;whiteSpace=wrap;html=1;fontSize=18;" vertex="1" parent="1"><mxGeometry x="510" y="430" width="120" height="60" as="geometry"/></mxCell><mxCell id="7" value="timer:" style="text;html=1;strokeColor=none;fillColor=none;align=center;verticalAlign=middle;whiteSpace=wrap;rounded=0;fontSize=18;" vertex="1" parent="1"><mxGeometry x="410" y="445" width="60" height="30" as="geometry"/></mxCell><mxCell id="8" value="&lt;span style=&quot;font-size: 18px&quot;&gt;stop&lt;br&gt;&lt;/span&gt;" style="rounded=0;whiteSpace=wrap;html=1;" vertex="1" parent="1"><mxGeometry x="550" y="550" width="80" height="30" as="geometry"/></mxCell></root></mxGraphModel></diagram></mxfile>